<svg id="visual" viewBox="0 0 540 960" width="540" height="960" xmlns="http://www.w3.org/2000/svg" xmlns:xlink="http://www.w3.org/1999/xlink" version="1.1"><rect x="0" y="0" width="540" height="960" fill="#FFF2F2"></rect><defs><linearGradient id="grad1_0" x1="0%" y1="0%" x2="100%" y2="100%"><stop offset="30%" stop-color="#fff2f2" stop-opacity="1"></stop><stop offset="70%" stop-color="#fff2f2" stop-opacity="1"></stop></linearGradient></defs><defs><linearGradient id="grad2_0" x1="0%" y1="0%" x2="100%" y2="100%"><stop offset="30%" stop-color="#fff2f2" stop-opacity="1"></stop><stop offset="70%" stop-color="#fff2f2" stop-opacity="1"></stop></linearGradient></defs><g transform="translate(540, 0)"><path d="M0 189C-38.2 187 -76.4 185.1 -94.5 163.7C-112.6 142.3 -110.6 101.5 -123 71C-135.4 40.5 -162.2 20.2 -189 0L0 0Z" fill="#715DF2"></path></g><g transform="translate(0, 960)"><path d="M0 -189C39.2 -187.6 78.5 -186.3 94.5 -163.7C110.5 -141.1 103.3 -97.3 115.2 -66.5C127.1 -35.7 158 -17.8 189 0L0 0Z" fill="#715DF2"></path></g></svg>