<svg id="visual" viewBox="0 0 540 960" width="540" height="960" xmlns="http://www.w3.org/2000/svg" xmlns:xlink="http://www.w3.org/1999/xlink" version="1.1"><rect x="0" y="0" width="540" height="960" fill="#FFF2F2"></rect><defs><linearGradient id="grad1_0" x1="0%" y1="0%" x2="100%" y2="100%"><stop offset="30%" stop-color="#fff2f2" stop-opacity="1"></stop><stop offset="70%" stop-color="#fff2f2" stop-opacity="1"></stop></linearGradient></defs><defs><linearGradient id="grad2_0" x1="0%" y1="0%" x2="100%" y2="100%"><stop offset="30%" stop-color="#fff2f2" stop-opacity="1"></stop><stop offset="70%" stop-color="#fff2f2" stop-opacity="1"></stop></linearGradient></defs><g transform="translate(540, 0)"><path d="M0 540C-83.4 545.3 -166.8 550.6 -206.6 498.9C-246.5 447.2 -242.7 338.5 -284.3 284.3C-325.8 230 -412.7 230 -462.9 191.7C-513 153.4 -526.5 76.7 -540 0L0 0Z" fill="#715DF2"></path></g><g transform="translate(0, 960)"><path d="M0 -540C48.5 -469.3 97.1 -398.7 153.5 -370.5C209.9 -342.3 274.1 -356.5 338 -338C401.9 -319.5 465.3 -268.4 498.9 -206.6C532.5 -144.9 536.2 -72.4 540 0L0 0Z" fill="#715DF2"></path></g></svg>