<svg width="40" height="40" viewBox="0 0 40 40" fill="none" xmlns="http://www.w3.org/2000/svg">
<path d="M39.9838 10.2091C39.9838 8.97903 39.88 7.75399 39.5863 6.55646C39.0588 4.37514 37.8151 2.70883 35.9539 1.48505C34.9964 0.860027 33.9427 0.476265 32.8227 0.273759C31.9626 0.123276 31.0921 0.0405192 30.2191 0.0262508C30.1541 0.0200006 30.0828 0.0062502 30.0103 0H9.97219C9.71845 0.0200006 9.4647 0.032501 9.21096 0.0450014C7.96725 0.116254 6.73104 0.246258 5.55858 0.715022C3.3324 1.5938 1.7237 3.1301 0.786225 5.34392C0.461236 6.09269 0.297491 6.88647 0.181244 7.69399C0.0837474 8.34526 0.031249 9.00278 0.0124996 9.6603C0.0124996 9.7128 0 9.76406 0 9.81656V30.1884L0.0387488 30.8922C0.123746 32.2535 0.298741 33.6011 0.872473 34.8511C1.95369 37.2149 3.76988 38.77 6.26356 39.5187C6.95978 39.7337 7.68976 39.8312 8.41849 39.8962C9.34346 39.9875 10.2672 40 11.1922 40H29.5766C30.4491 40 31.3215 39.9412 32.194 39.8312C33.5677 39.655 34.8564 39.2512 36.0226 38.4837C37.4031 37.5894 38.4915 36.3105 39.1538 34.8048C39.4663 34.1011 39.6425 33.3535 39.7725 32.5973C39.9613 31.471 40 30.3309 40 29.1922C39.9938 22.8632 40 16.5355 39.9938 10.2066L39.9838 10.2091ZM29.2803 16.8555V26.3746C29.2803 27.0708 29.1828 27.7546 28.8703 28.3859C28.3891 29.3684 27.6079 29.9872 26.5592 30.2872C25.9782 30.4537 25.3794 30.5498 24.7755 30.5735C24.0161 30.6183 23.2667 30.3824 22.67 29.9106C22.0732 29.4387 21.6708 28.7639 21.5393 28.0146C21.4189 27.3405 21.523 26.6454 21.8357 26.0361C22.1485 25.4269 22.6525 24.9371 23.2705 24.642C23.8043 24.382 24.3842 24.2258 24.963 24.1083C25.5942 23.972 26.2254 23.8482 26.8504 23.7045C27.3129 23.6007 27.6116 23.3207 27.7029 22.8445C27.7291 22.7407 27.7354 22.6295 27.7354 22.5257V13.4504C27.7331 13.3469 27.718 13.244 27.6904 13.1442C27.6254 12.8904 27.4429 12.7404 27.1829 12.7529C26.9154 12.7654 26.6554 12.8117 26.3954 12.8642C25.1255 13.1117 23.8568 13.3654 22.593 13.6254L16.4282 14.8692C16.402 14.8755 16.3695 14.8892 16.3432 14.8892C15.8808 15.0192 15.7183 15.228 15.6983 15.7092C15.692 15.7805 15.6983 15.853 15.6983 15.9242C15.692 20.2606 15.6983 24.597 15.692 28.9322C15.692 29.6359 15.6133 30.3259 15.3345 30.976C14.872 32.0435 14.0521 32.7148 12.9458 33.0335C12.361 33.2038 11.7572 33.2999 11.1484 33.3198C9.55345 33.3785 8.22474 32.3173 7.95225 30.7485C7.71726 29.3947 8.33599 27.9359 9.87219 27.2846C10.4709 27.0371 11.0897 26.9008 11.7209 26.7708L13.1533 26.4783C13.7908 26.3421 14.1233 25.9383 14.1558 25.287V10.2341C14.1558 10.0253 14.1821 9.81781 14.2271 9.6153C14.3446 9.14029 14.6833 8.86653 15.1383 8.75527C15.562 8.64402 15.9983 8.56652 16.427 8.47527C17.6507 8.22776 18.8682 7.98025 20.0919 7.73899L23.8743 6.97022C24.9942 6.74896 26.1067 6.52145 27.2267 6.3002C27.5916 6.22894 27.9629 6.15019 28.3329 6.12394C28.8466 6.07894 29.2053 6.40395 29.2578 6.92522C29.2703 7.04897 29.2778 7.17272 29.2778 7.29648V16.848L29.2803 16.8555Z" fill="white"/>
</svg>
