<svg width="65" height="50" viewBox="0 0 65 50" fill="none" xmlns="http://www.w3.org/2000/svg">
<path d="M54.9982 4.15531C50.8814 2.21831 46.4242 0.812431 41.7812 0.000143707C41.7405 -0.00117033 41.7 0.0065404 41.6625 0.0227339C41.6251 0.0389274 41.5916 0.0632104 41.5645 0.0938698C41.0073 1.12485 40.3573 2.46825 39.924 3.49923C34.9993 2.74942 29.9911 2.74942 25.0664 3.49923C24.6331 2.43701 23.9831 1.12485 23.395 0.0938698C23.364 0.0313862 23.2711 0.000143707 23.1783 0.000143707C18.5353 0.812431 14.109 2.21831 9.96126 4.15531C9.9303 4.15531 9.89935 4.18655 9.8684 4.21779C1.44912 16.9332 -0.872373 29.305 0.272896 41.5518C0.272896 41.6142 0.30385 41.6767 0.365756 41.708C5.93734 45.8319 11.2922 48.3312 16.5852 49.9871C16.6781 50.0183 16.771 49.9871 16.8019 49.9246C18.0401 48.2063 19.1544 46.3942 20.1139 44.4885C20.1758 44.3635 20.1139 44.2386 19.9901 44.2073C18.2258 43.52 16.5543 42.7077 14.9138 41.7705C14.79 41.708 14.79 41.5205 14.8828 41.4268C15.2233 41.1769 15.5638 40.8957 15.9043 40.6458C15.9662 40.5833 16.059 40.5833 16.121 40.6145C26.7689 45.5195 38.2525 45.5195 48.7766 40.6145C48.8385 40.5833 48.9314 40.5833 48.9933 40.6458C49.3338 40.9269 49.6742 41.1769 50.0147 41.458C50.1385 41.5518 50.1385 41.7392 49.9838 41.8017C48.3742 42.7702 46.6718 43.5512 44.9075 44.2386C44.7836 44.2698 44.7527 44.426 44.7836 44.5197C45.7741 46.4255 46.8885 48.2375 48.0956 49.9558C48.1885 49.9871 48.2814 50.0183 48.3742 49.9871C53.6982 48.3312 59.0531 45.8319 64.6247 41.708C64.6866 41.6767 64.7175 41.6142 64.7175 41.5518C66.0795 27.3992 62.4579 15.1212 55.122 4.21779C55.0911 4.18655 55.0601 4.15531 54.9982 4.15531ZM21.7235 34.085C18.5353 34.085 15.8733 31.117 15.8733 27.4617C15.8733 23.8064 18.4734 20.8384 21.7235 20.8384C25.0045 20.8384 27.6046 23.8377 27.5736 27.4617C27.5736 31.117 24.9736 34.085 21.7235 34.085ZM43.2979 34.085C40.1097 34.085 37.4477 31.117 37.4477 27.4617C37.4477 23.8064 40.0478 20.8384 43.2979 20.8384C46.5789 20.8384 49.179 23.8377 49.148 27.4617C49.148 31.117 46.5789 34.085 43.2979 34.085Z" fill="white"/>
</svg>
