<svg width="40" height="17" viewBox="0 0 40 17" fill="none" xmlns="http://www.w3.org/2000/svg">
<path d="M19.2 2.10909V16.8909H35.1273C38.4909 16.6545 40 14.5818 40 12.0364C40 9.34545 37.9636 7.18182 35.2364 7.18182C34.5455 7.18182 33.9636 7.32727 33.3636 7.58182C32.9273 3.32727 29.3091 0 24.8545 0C22.7273 0 20.7091 0.8 19.2 2.10909ZM17.6 3.96364C17.0545 3.63636 16.4727 3.38182 15.8364 3.25455V16.8909H18.3636V2.96364C18.0909 3.25455 17.8364 3.61818 17.6 3.96364ZM13.3273 2.98182V16.8909H15V3.03636C14.6545 2.98182 14.3091 2.96364 13.9455 2.96364C13.7273 2.96364 13.5273 2.96364 13.3273 2.98182ZM10 4.16364V16.8909H11.6545V3.32727C11.0545 3.52727 10.4909 3.81818 10 4.16364ZM6.96364 8.70909C6.85455 8.70909 6.74545 8.6 6.61818 8.54545V16.8909H8.29091V5.72727C7.61818 6.6 7.16364 7.63636 6.96364 8.70909ZM3.25455 8.2V16.7273C3.63636 16.8364 4.07273 16.8909 4.54545 16.8909H4.94545V8.05455C4.8 8.03636 4.65455 8.01818 4.54545 8.01818C4.07273 8.01818 3.63636 8.09091 3.25455 8.2ZM0 12.4545C0 13.8182 0.618182 15.0182 1.58182 15.8364V9.09091C0.618182 9.89091 0 11.1091 0 12.4545Z" fill="white"/>
</svg>
